<svg height="128" viewBox="0 0 30 20" width="128" xmlns="http://www.w3.org/2000/svg"><g fill="#007ee5"><path d="m20.9216058 3.45145455h-2.6175766c-.5969197 0-1.0788905.39227272-1.0788905.87636363v1.43c0 .09181818 0 .18409091.045708.27681818.5512117-.66909091 1.4006569-1.10727272 2.3419708-1.10727272.6869781 0 1.7907591.415 2.3419708 1.08363636.0230803-.06909091.0457081-.16136364.0457081-.25318182v-1.43c0-.48409091-.4819709-.87636363-1.0788906-.87636363" xmlns="http://www.w3.org/2000/svg"/><path d="m15.3857752 15.2275c-.3095475.0586364-.6181898.0918182-.9241168.1036364-.305927-.0118182-.6145693-.045-.9241168-.1036364-2.2229489-.4204545-3.94763503-1.9927273-4.70928467-4.0104545 1.07662774 1.23 3.22264237 1.8668181 5.63340147 1.8945454 2.4107591-.0277273 4.5567737-.6645454 5.6329489-1.8945454-.7611971 2.0177272-2.4858832 3.59-4.7088321 4.0104545zm-8.41389783-10.54954545v1.43c0 .16181818.0570219.31181818.15160584.44181818-.84944525.08318182-1.65951825.19772727-2.41845255.35863636.40639416-1.04272727 1.26172262-2.71545454 2.27770803-3.77090909.17921167-.17636364.87886131-.80545455 1.92652554-.99.51048176-.07863636 2.33925547-.35363636 5.18129927-.35363636h.3891971.3891971c2.8424963 0 4.6708175.275 5.1812992.35363636 1.0476643.18454545 1.7473139.81363636 1.9265256.99 1.0159854 1.05545455 1.8717664 2.72818182 2.277708 3.77090909-1.6138102-.34318182-3.4520876-.48-5.4283941-.53090909-.2181314-.00454545-.8155037-.01772727-1.3698833-.025h-.5362773c-.408657-.00136364-.8209343-.00136364-1.2381898 0h-1.2019854-1.2019854c-.4168029-.00136364-.8295329-.00136364-1.2381898 0h-.3362482c.0280584-.07772727.0443504-.16.0443504-.24454545v-1.43c0-.48409091-.4819708-.87636364-1.0788905-.87636364h-2.61757666c-.59691971 0-1.07934307.39227273-1.07934307.87636364zm16.17159123 9.21409095c-.8349635-.0831819-1.5101752-.7609091-1.5929927-1.5995455-.111781-1.1327273.8286277-2.0772727 1.9568467-1.965.834511.0827273 1.5097227.7613636 1.5925402 1.5990909.111781 1.1331818-.8286278 2.0777273-1.9563942 1.9654546zm-17.6948905 0c-.8349635-.0831819-1.51017518-.7609091-1.5929927-1.5995455-.11178102-1.1327273.82862774-2.0772727 1.95684672-1.965.8349635.0827273 1.51017518.7613636 1.59254014 1.5990909.11178102 1.1331818-.82862773 2.0777273-1.95639416 1.9654546zm23.4531971-8.02136368c-.0113139-.41727273-.3661168-.74045455-.7815621-.72863637l-1.6613284.0459091c-.3733577.01045454-.6720438.29954545-.7195621.66136363-.0108613.08318182-.0289635.16454546-.0502335.245l-.1869052-.36954545c-.6774744-1.25863637-1.6029489-2.77045455-2.5329489-3.72272728h.0009051s-.8168613-1.00590909-2.4546569-1.33863636c-.0031679-.00090909-.0058832-.00136363-.0090511-.00181818-1.4264525-.30590909-3.7498686-.38454545-6.0266715-.36818182-2.2768029-.01636363-4.60021899.06227273-6.02667155.36818182-.00316788.00045455-.00588321.00090909-.00905109.00181818-1.63734307.33272727-2.45465694 1.33863636-2.45465694 1.33863636h.00090511c-.93.95227273-1.8550219 2.46409091-2.5329489 3.72272728l-.20953285.41590909c-.02715329-.09636364-.05113869-.19272727-.06426277-.29136364-.04751825-.36181818-.34575183-.65090909-.71956205-.66136363l-1.66132846-.0459091c-.41499271-.01181818-.76979563.31136364-.78110949.72863637l-.02127008.81272727c-.01131387.41727273.31045256.77318182.72589781.785l1.76541606.205.02172263-.035c-.01312409.02954546-.02579562.05863636-.03620438.08363636-.58424818.67181819-.93859854 1.45818182-1.04359124 2.08772728-.19052555.65454547-.29778102 1.48772727-.29778102 2.55409087 0 1.5290909.41589781 3.6145455.51591241 4.6313637v1.5136363c0 .7545455.60868613 1.3663637 1.36037956 1.3663637h1.84642336c.75124087 0 1.36037956-.6118182 1.36037956-1.3663637v-1.1254545c1.93467153-.1781818 5.09033572-.2386364 8.26093432-.2445455 3.1705985.0059091 6.3262628.0663637 8.2609343.2445455v1.1254545c0 .7545455.6091387 1.3663637 1.3603796 1.3663637h1.8464233c.7516934 0 1.3603796-.6118182 1.3603796-1.3663637v-1.5136363c.1000146-1.0168182.5159124-3.1022728.5159124-4.6313637 0-2.36818178-.876146-4.03863633-1.3413723-4.64181815-.0063357-.01545454-.0144817-.0340909-.0221752-.05181818l1.7369051-.20181818c.4149927-.01181818.7372117-.36772727.7258979-.785z"/></g></svg>